<svg xmlns="http://www.w3.org/2000/svg" viewBox="0 0 512 512" role="img" aria-label="White bear head silhouette">
  <title>Ursas Bear Head White Silhouette</title>
  <g fill="#ffffff">
    <!-- ears -->
    <circle cx="154" cy="164" r="64"/>
    <circle cx="358" cy="164" r="64"/>
    <!-- head -->
    <path d="M256 116c-102 0-184 75-184 169 0 101 72 157 184 157s184-56 184-157c0-94-82-169-184-169z"/>
    <!-- muzzle cutout -->
    <ellipse cx="256" cy="304" rx="70" ry="74" fill="#000000"/>
    <!-- nose -->
    <path d="M226 270c0-13 12-20 30-20s30 7 30 20c0 8-20 27-30 27s-30-19-30-27z" fill="#ffffff"/>
    <!-- inner ears cutout -->
    <path d="M126 165c0-27 21-49 48-49 24 0 43 17 48 39l-70 58c-16-9-26-27-26-48z" fill="#000000"/>
    <path d="M386 165c0-27-21-49-48-49-24 0-43 17-48 39l70 58c16-9 26-27 26-48z" fill="#000000"/>
  </g>
</svg>
