<?xml version="1.0" encoding="UTF-8"?>
<svg xmlns="http://www.w3.org/2000/svg" width="1024" height="1024" viewBox="0 0 1024 1024" fill="none"><rect x="933.00" y="509.00" width="18" height="6" rx="3" fill="#ffd7f8" opacity="0.26" transform="rotate(90.00 942.00 512.00)"/><rect x="921.68" y="588.01" width="26" height="6" rx="3" fill="#ffd7f8" opacity="0.26" transform="rotate(100.59 934.68 591.01)"/><rect x="895.96" y="664.33" width="34" height="6" rx="3" fill="#ffd7f8" opacity="0.26" transform="rotate(111.18 912.96 667.33)"/><rect x="856.59" y="735.37" width="42" height="6" rx="3" fill="#ffd7f8" opacity="0.26" transform="rotate(121.76 877.59 738.37)"/><rect x="820.77" y="798.69" width="18" height="6" rx="3" fill="#ffd7f8" opacity="0.26" transform="rotate(132.35 829.77 801.69)"/><rect x="758.13" y="852.15" width="26" height="6" rx="3" fill="#ffd7f8" opacity="0.26" transform="rotate(142.94 771.13 855.15)"/><rect x="686.67" y="893.92" width="34" height="6" rx="3" fill="#ffd7f8" opacity="0.26" transform="rotate(153.53 703.67 896.92)"/><rect x="608.68" y="922.59" width="42" height="6" rx="3" fill="#ffd7f8" opacity="0.26" transform="rotate(164.12 629.68 925.59)"/><rect x="542.68" y="937.17" width="18" height="6" rx="3" fill="#ffd7f8" opacity="0.26" transform="rotate(174.71 551.68 940.17)"/><rect x="459.32" y="937.17" width="26" height="6" rx="3" fill="#ffd7f8" opacity="0.26" transform="rotate(185.29 472.32 940.17)"/><rect x="377.32" y="922.59" width="34" height="6" rx="3" fill="#ffd7f8" opacity="0.26" transform="rotate(195.88 394.32 925.59)"/><rect x="299.33" y="893.92" width="42" height="6" rx="3" fill="#ffd7f8" opacity="0.26" transform="rotate(206.47 320.33 896.92)"/><rect x="243.87" y="852.15" width="18" height="6" rx="3" fill="#ffd7f8" opacity="0.26" transform="rotate(217.06 252.87 855.15)"/><rect x="181.23" y="798.69" width="26" height="6" rx="3" fill="#ffd7f8" opacity="0.26" transform="rotate(227.65 194.23 801.69)"/><rect x="129.41" y="735.37" width="34" height="6" rx="3" fill="#ffd7f8" opacity="0.26" transform="rotate(238.24 146.41 738.37)"/><rect x="90.04" y="664.33" width="42" height="6" rx="3" fill="#ffd7f8" opacity="0.26" transform="rotate(248.82 111.04 667.33)"/><rect x="80.32" y="588.01" width="18" height="6" rx="3" fill="#ffd7f8" opacity="0.26" transform="rotate(259.41 89.32 591.01)"/><rect x="69.00" y="509.00" width="26" height="6" rx="3" fill="#ffd7f8" opacity="0.26" transform="rotate(270.00 82.00 512.00)"/><rect x="72.32" y="429.99" width="34" height="6" rx="3" fill="#ffd7f8" opacity="0.26" transform="rotate(280.59 89.32 432.99)"/><rect x="90.04" y="353.67" width="42" height="6" rx="3" fill="#ffd7f8" opacity="0.26" transform="rotate(291.18 111.04 356.67)"/><rect x="137.41" y="282.63" width="18" height="6" rx="3" fill="#ffd7f8" opacity="0.26" transform="rotate(301.76 146.41 285.63)"/><rect x="181.23" y="219.31" width="26" height="6" rx="3" fill="#ffd7f8" opacity="0.26" transform="rotate(312.35 194.23 222.31)"/><rect x="235.87" y="165.85" width="34" height="6" rx="3" fill="#ffd7f8" opacity="0.26" transform="rotate(322.94 252.87 168.85)"/><rect x="299.33" y="124.08" width="42" height="6" rx="3" fill="#ffd7f8" opacity="0.26" transform="rotate(333.53 320.33 127.08)"/><rect x="385.32" y="95.41" width="18" height="6" rx="3" fill="#ffd7f8" opacity="0.26" transform="rotate(344.12 394.32 98.41)"/><rect x="459.32" y="80.83" width="26" height="6" rx="3" fill="#ffd7f8" opacity="0.26" transform="rotate(354.71 472.32 83.83)"/><rect x="534.68" y="80.83" width="34" height="6" rx="3" fill="#ffd7f8" opacity="0.26" transform="rotate(365.29 551.68 83.83)"/><rect x="608.68" y="95.41" width="42" height="6" rx="3" fill="#ffd7f8" opacity="0.26" transform="rotate(375.88 629.68 98.41)"/><rect x="694.67" y="124.08" width="18" height="6" rx="3" fill="#ffd7f8" opacity="0.26" transform="rotate(386.47 703.67 127.08)"/><rect x="758.13" y="165.85" width="26" height="6" rx="3" fill="#ffd7f8" opacity="0.26" transform="rotate(397.06 771.13 168.85)"/><rect x="812.77" y="219.31" width="34" height="6" rx="3" fill="#ffd7f8" opacity="0.26" transform="rotate(407.65 829.77 222.31)"/><rect x="856.59" y="282.63" width="42" height="6" rx="3" fill="#ffd7f8" opacity="0.26" transform="rotate(418.24 877.59 285.63)"/><rect x="903.96" y="353.67" width="18" height="6" rx="3" fill="#ffd7f8" opacity="0.26" transform="rotate(428.82 912.96 356.67)"/><rect x="921.68" y="429.99" width="26" height="6" rx="3" fill="#ffd7f8" opacity="0.26" transform="rotate(439.41 934.68 432.99)"/></svg>
